<svg xmlns="http://www.w3.org/2000/svg" xmlns:xlink="http://www.w3.org/1999/xlink" width="967" zoomAndPan="magnify" viewBox="0 0 725.25 295.499996" height="394" preserveAspectRatio="xMidYMid meet" version="1.0"><defs><g/><clipPath id="cec5da5417"><path d="M 0.238281 0 L 724.261719 0 L 724.261719 295 L 0.238281 295 Z M 0.238281 0 " clip-rule="nonzero"/></clipPath></defs><g clip-path="url(#cec5da5417)"><path fill="#ffffff" d="M 0.238281 0 L 724.261719 0 L 724.261719 295 L 0.238281 295 Z M 0.238281 0 " fill-opacity="1" fill-rule="nonzero"/></g><g fill="#000000" fill-opacity="1"><g transform="translate(170.068341, 187.801289)"><g><path d="M 71.125 -15.890625 C 74.820312 -16.566406 78.515625 -17.195312 82.203125 -17.78125 C 85.890625 -18.363281 89.582031 -18.898438 93.28125 -19.390625 C 93.476562 -19.390625 93.578125 -19.289062 93.578125 -19.09375 C 93.765625 -18.894531 93.710938 -18.796875 93.421875 -18.796875 C 89.828125 -18.210938 86.253906 -17.582031 82.703125 -16.90625 C 79.160156 -16.226562 75.640625 -15.5 72.140625 -14.71875 C 72.335938 -14.519531 72.53125 -14.300781 72.71875 -14.0625 C 72.914062 -13.820312 73.113281 -13.601562 73.3125 -13.40625 C 73.800781 -12.632812 74.210938 -11.710938 74.546875 -10.640625 C 74.890625 -9.566406 75.015625 -8.5 74.921875 -7.4375 C 74.816406 -5.488281 74.28125 -3.640625 73.3125 -1.890625 C 72.34375 -0.140625 71.128906 1.316406 69.671875 2.484375 C 66.953125 4.910156 63.625 6.609375 59.6875 7.578125 C 55.75 8.546875 52.03125 9.03125 48.53125 9.03125 C 45.226562 9.03125 41.945312 8.617188 38.6875 7.796875 C 35.4375 6.972656 32.550781 5.394531 30.03125 3.0625 L 29.59375 2.484375 C 29.488281 2.285156 29.410156 2.160156 29.359375 2.109375 C 29.316406 2.066406 29.25 1.945312 29.15625 1.75 C 28.757812 1.257812 28.5625 0.628906 28.5625 -0.140625 C 28.5625 -1.503906 29.289062 -2.742188 30.75 -3.859375 C 32.207031 -4.972656 33.472656 -5.773438 34.546875 -6.265625 C 39.398438 -8.503906 44.5 -10.253906 49.84375 -11.515625 C 55.1875 -12.773438 60.4375 -13.890625 65.59375 -14.859375 C 63.550781 -16.222656 61.171875 -17.585938 58.453125 -18.953125 C 55.535156 -20.304688 52.519531 -21.585938 49.40625 -22.796875 C 46.300781 -24.015625 43.191406 -25.257812 40.078125 -26.53125 C 37.066406 -27.789062 34.003906 -29.050781 30.890625 -30.3125 C 27.785156 -31.570312 24.679688 -32.984375 21.578125 -34.546875 C 18.460938 -36.097656 15.300781 -37.941406 12.09375 -40.078125 C 8.882812 -42.210938 6.1875 -44.738281 4 -47.65625 C 1.820312 -50.570312 0.585938 -53.972656 0.296875 -57.859375 C 0.0976562 -59.804688 0.191406 -61.773438 0.578125 -63.765625 C 0.972656 -65.753906 1.609375 -67.625 2.484375 -69.375 C 4.421875 -73.164062 7.039062 -76.375 10.34375 -79 C 13.644531 -81.625 17.359375 -83.710938 21.484375 -85.265625 C 25.617188 -86.816406 29.875 -87.957031 34.25 -88.6875 C 38.625 -89.414062 42.800781 -89.78125 46.78125 -89.78125 C 51.25 -89.78125 55.765625 -89.269531 60.328125 -88.25 C 64.898438 -87.226562 69.128906 -85.625 73.015625 -83.4375 C 76.898438 -81.25 80.054688 -78.332031 82.484375 -74.6875 C 84.921875 -71.050781 86.285156 -66.609375 86.578125 -61.359375 C 86.578125 -61.160156 86.476562 -61.0625 86.28125 -61.0625 C 85.988281 -61.0625 85.84375 -61.160156 85.84375 -61.359375 C 84.78125 -67.285156 82.472656 -71.945312 78.921875 -75.34375 C 75.378906 -78.75 71.128906 -81.179688 66.171875 -82.640625 C 61.210938 -84.097656 56.0625 -84.828125 50.71875 -84.828125 C 47.320312 -84.828125 43.554688 -84.507812 39.421875 -83.875 C 35.296875 -83.25 31.164062 -82.207031 27.03125 -80.75 C 22.90625 -79.289062 19.191406 -77.367188 15.890625 -74.984375 C 12.585938 -72.609375 10.109375 -69.71875 8.453125 -66.3125 C 7.085938 -63.882812 6.503906 -61.238281 6.703125 -58.375 C 6.898438 -55.507812 7.820312 -52.957031 9.46875 -50.71875 C 11.125 -48.382812 13.285156 -46.296875 15.953125 -44.453125 C 18.628906 -42.609375 21.328125 -40.910156 24.046875 -39.359375 C 26.960938 -37.796875 29.925781 -36.359375 32.9375 -35.046875 C 35.945312 -33.734375 38.957031 -32.398438 41.96875 -31.046875 C 45.082031 -29.785156 48.191406 -28.519531 51.296875 -27.25 C 54.410156 -25.988281 57.472656 -24.582031 60.484375 -23.03125 C 62.429688 -22.0625 64.300781 -21.015625 66.09375 -19.890625 C 67.894531 -18.773438 69.570312 -17.441406 71.125 -15.890625 Z M 70.828125 -7.578125 C 70.929688 -8.742188 70.640625 -9.835938 69.953125 -10.859375 C 69.273438 -11.878906 68.40625 -12.828125 67.34375 -13.703125 C 65.195312 -13.210938 63.03125 -12.703125 60.84375 -12.171875 C 58.664062 -11.640625 56.457031 -11.082031 54.21875 -10.5 C 51.113281 -9.625 47.957031 -8.675781 44.75 -7.65625 C 41.539062 -6.632812 38.523438 -5.441406 35.703125 -4.078125 C 34.148438 -3.304688 32.890625 -2.429688 31.921875 -1.453125 C 31.535156 -0.972656 31.34375 -0.535156 31.34375 -0.140625 C 31.34375 0.046875 31.390625 0.191406 31.484375 0.296875 C 31.484375 0.296875 31.503906 0.34375 31.546875 0.4375 C 31.597656 0.53125 31.675781 0.628906 31.78125 0.734375 L 32.0625 1.015625 C 34.007812 2.867188 36.507812 4.132812 39.5625 4.8125 C 42.625 5.488281 45.421875 5.828125 47.953125 5.828125 C 49.890625 5.828125 52.171875 5.582031 54.796875 5.09375 C 57.421875 4.613281 59.945312 3.835938 62.375 2.765625 C 64.8125 1.703125 66.828125 0.320312 68.421875 -1.375 C 70.023438 -3.082031 70.828125 -5.148438 70.828125 -7.578125 Z M 31.78125 0.875 C 31.78125 0.78125 31.78125 0.734375 31.78125 0.734375 Z M 31.78125 0.875 "/></g></g></g><g fill="#000000" fill-opacity="1"><g transform="translate(264.219925, 187.801289)"><g><path d="M -40.234375 -38.1875 C -40.234375 -38.1875 -40.207031 -38.207031 -40.15625 -38.25 C -40.101562 -38.300781 -40.03125 -38.28125 -39.9375 -38.1875 L -39.796875 -38.1875 L -31.34375 -39.640625 C -29.007812 -40.035156 -26.039062 -40.570312 -22.4375 -41.25 C -18.84375 -41.925781 -15.125 -42.703125 -11.28125 -43.578125 C -7.445312 -44.453125 -3.925781 -45.421875 -0.71875 -46.484375 C 2.476562 -47.554688 4.851562 -48.726562 6.40625 -50 L 10.5 -45.625 L 10.0625 -44.890625 C 9.957031 -44.691406 9.859375 -44.445312 9.765625 -44.15625 C 9.671875 -43.863281 9.570312 -43.625 9.46875 -43.4375 C 9.082031 -42.5625 8.84375 -41.734375 8.75 -40.953125 C 19.4375 -41.441406 30.144531 -41.832031 40.875 -42.125 C 51.613281 -42.414062 62.328125 -42.5625 73.015625 -42.5625 C 82.242188 -42.5625 91.425781 -42.414062 100.5625 -42.125 C 105.132812 -42.019531 109.703125 -41.847656 114.265625 -41.609375 C 118.835938 -41.367188 123.40625 -40.957031 127.96875 -40.375 C 128.164062 -40.175781 128.265625 -40.03125 128.265625 -39.9375 C 128.265625 -39.738281 128.117188 -39.640625 127.828125 -39.640625 C 124.328125 -40.035156 120.800781 -40.28125 117.25 -40.375 C 113.707031 -40.46875 110.140625 -40.515625 106.546875 -40.515625 C 90.117188 -40.515625 73.617188 -40.148438 57.046875 -39.421875 C 40.484375 -38.691406 23.992188 -37.648438 7.578125 -36.296875 C 6.898438 -33.765625 6.4375 -30.847656 6.1875 -27.546875 C 5.945312 -24.242188 5.78125 -21.28125 5.6875 -18.65625 C 5.6875 -16.90625 5.832031 -14.71875 6.125 -12.09375 C 6.414062 -9.46875 7.117188 -7.160156 8.234375 -5.171875 C 9.347656 -3.179688 11.171875 -2.1875 13.703125 -2.1875 C 15.929688 -2.1875 18.210938 -2.816406 20.546875 -4.078125 C 20.742188 -4.078125 20.890625 -3.984375 20.984375 -3.796875 C 20.984375 -3.597656 20.9375 -3.5 20.84375 -3.5 C 19.875 -2.820312 18.78125 -2.191406 17.5625 -1.609375 C 16.34375 -1.023438 15.054688 -0.632812 13.703125 -0.4375 C 12.148438 -0.4375 10.789062 -0.628906 9.625 -1.015625 C 8.457031 -1.410156 7.335938 -2.285156 6.265625 -3.640625 C 5.296875 -4.710938 4.566406 -5.878906 4.078125 -7.140625 C 3.597656 -8.398438 3.210938 -9.664062 2.921875 -10.9375 C 2.523438 -12.195312 2.253906 -13.457031 2.109375 -14.71875 C 1.960938 -15.976562 1.84375 -17.242188 1.75 -18.515625 C 1.550781 -21.035156 1.476562 -23.582031 1.53125 -26.15625 C 1.582031 -28.738281 1.703125 -31.289062 1.890625 -33.8125 C 1.890625 -34.195312 1.914062 -34.5625 1.96875 -34.90625 C 2.019531 -35.25 2.046875 -35.613281 2.046875 -36 C -4.367188 -35.507812 -10.78125 -34.972656 -17.1875 -34.390625 C -23.601562 -33.804688 -29.972656 -33.128906 -36.296875 -32.359375 L -39.796875 -31.921875 L -40.8125 -31.921875 C -40.8125 -31.722656 -40.859375 -31.625 -40.953125 -31.625 C -41.148438 -31.625 -41.585938 -31.988281 -42.265625 -32.71875 C -42.941406 -33.445312 -43.453125 -34.222656 -43.796875 -35.046875 C -44.140625 -35.878906 -43.96875 -36.34375 -43.28125 -36.4375 C -42.21875 -37.800781 -41.539062 -38.285156 -41.25 -37.890625 L -41.09375 -38.046875 L -40.8125 -38.046875 Z M 2.921875 -41.09375 C 2.628906 -41 2.285156 -40.859375 1.890625 -40.671875 C 2.085938 -40.671875 2.257812 -40.691406 2.40625 -40.734375 C 2.550781 -40.785156 2.671875 -40.8125 2.765625 -40.8125 C 2.765625 -40.8125 2.765625 -40.832031 2.765625 -40.875 C 2.765625 -40.925781 2.816406 -41 2.921875 -41.09375 Z M -39.796875 -38.046875 C -39.796875 -38.140625 -39.816406 -38.1875 -39.859375 -38.1875 C -39.910156 -38.1875 -39.9375 -38.1875 -39.9375 -38.1875 L -40.234375 -38.1875 C -40.234375 -38.09375 -40.253906 -38.046875 -40.296875 -38.046875 C -40.347656 -38.046875 -40.375 -38.046875 -40.375 -38.046875 Z M -39.796875 -38.046875 "/></g></g></g><g fill="#000000" fill-opacity="1"><g transform="translate(287.976434, 187.801289)"><g><path d="M 38.765625 -5.390625 C 38.960938 -5.390625 39.0625 -5.289062 39.0625 -5.09375 C 39.257812 -4.90625 39.210938 -4.8125 38.921875 -4.8125 C 37.265625 -4.03125 35.753906 -3.445312 34.390625 -3.0625 C 33.035156 -2.675781 31.4375 -2.484375 29.59375 -2.484375 C 27.738281 -2.671875 26.179688 -3.445312 24.921875 -4.8125 C 24.242188 -5.394531 23.6875 -6.070312 23.25 -6.84375 C 22.8125 -7.625 22.398438 -8.351562 22.015625 -9.03125 L 21.859375 -9.1875 C 21.671875 -8.988281 21.476562 -8.84375 21.28125 -8.75 C 20.695312 -8.351562 20.113281 -7.910156 19.53125 -7.421875 C 18.945312 -6.941406 18.316406 -6.457031 17.640625 -5.96875 C 16.367188 -5.09375 15.078125 -4.191406 13.765625 -3.265625 C 12.460938 -2.347656 10.984375 -1.503906 9.328125 -0.734375 C 8.941406 -0.628906 8.476562 -0.503906 7.9375 -0.359375 C 7.40625 -0.210938 6.847656 -0.09375 6.265625 0 C 5.585938 0 4.859375 -0.117188 4.078125 -0.359375 C 3.304688 -0.609375 2.628906 -1.070312 2.046875 -1.75 C 1.460938 -2.332031 1.070312 -2.9375 0.875 -3.5625 C 0.675781 -4.195312 0.484375 -4.757812 0.296875 -5.25 C 0.00390625 -6.414062 0.0507812 -7.628906 0.4375 -8.890625 C 1.113281 -11.222656 2.375 -13.238281 4.21875 -14.9375 C 6.070312 -16.632812 8.210938 -17.96875 10.640625 -18.9375 C 13.066406 -19.914062 15.398438 -20.40625 17.640625 -20.40625 C 18.609375 -20.40625 19.53125 -20.351562 20.40625 -20.25 C 21.28125 -20.15625 22.15625 -19.867188 23.03125 -19.390625 C 24.96875 -18.609375 26.035156 -17.242188 26.234375 -15.296875 L 26.234375 -15.15625 C 26.234375 -14.957031 26.132812 -14.859375 25.9375 -14.859375 C 25.84375 -14.859375 25.75 -14.910156 25.65625 -15.015625 C 25.070312 -15.691406 24.488281 -16.125 23.90625 -16.3125 C 23.320312 -16.507812 22.640625 -16.609375 21.859375 -16.609375 C 21.273438 -16.609375 20.691406 -16.5625 20.109375 -16.46875 C 19.523438 -16.375 18.941406 -16.226562 18.359375 -16.03125 C 15.546875 -15.0625 13.164062 -13.75 11.21875 -12.09375 C 8.789062 -10.445312 7.238281 -8.796875 6.5625 -7.140625 C 6.363281 -6.554688 6.265625 -6.21875 6.265625 -6.125 C 6.265625 -5.726562 6.265625 -5.53125 6.265625 -5.53125 C 6.171875 -5.53125 6.097656 -5.53125 6.046875 -5.53125 C 5.992188 -5.53125 6.066406 -5.53125 6.265625 -5.53125 C 6.847656 -5.53125 7.285156 -5.582031 7.578125 -5.6875 C 8.835938 -5.976562 10.125 -6.488281 11.4375 -7.21875 C 12.75 -7.945312 14.035156 -8.695312 15.296875 -9.46875 C 15.984375 -9.957031 16.664062 -10.394531 17.34375 -10.78125 C 18.019531 -11.175781 18.703125 -11.566406 19.390625 -11.953125 C 19.773438 -12.148438 20.132812 -12.34375 20.46875 -12.53125 C 20.8125 -12.726562 21.328125 -12.925781 22.015625 -13.125 C 22.203125 -13.125 22.367188 -13.125 22.515625 -13.125 C 22.660156 -13.125 22.78125 -13.125 22.875 -13.125 C 23.070312 -13.019531 23.335938 -12.894531 23.671875 -12.75 C 24.015625 -12.601562 24.238281 -12.4375 24.34375 -12.25 C 24.53125 -11.851562 24.625 -11.628906 24.625 -11.578125 C 24.625 -11.535156 24.625 -11.515625 24.625 -11.515625 L 24.921875 -10.203125 C 26.085938 -6.222656 28.566406 -4.234375 32.359375 -4.234375 C 33.421875 -4.234375 34.507812 -4.351562 35.625 -4.59375 C 36.75 -4.832031 37.796875 -5.097656 38.765625 -5.390625 Z M 21.421875 -10.5 C 21.421875 -10.59375 21.421875 -10.640625 21.421875 -10.640625 C 21.421875 -10.640625 21.421875 -10.59375 21.421875 -10.5 Z M 21.421875 -10.5 "/></g></g></g><g fill="#000000" fill-opacity="1"><g transform="translate(325.870261, 187.801289)"><g><path d="M 104.0625 11.8125 C 104.257812 11.8125 104.359375 11.90625 104.359375 12.09375 C 104.359375 12.289062 104.3125 12.4375 104.21875 12.53125 C 93.132812 14.957031 81.859375 16.5625 70.390625 17.34375 C 58.929688 18.125 47.566406 18.515625 36.296875 18.515625 C 34.441406 18.515625 32.566406 18.515625 30.671875 18.515625 C 28.785156 18.515625 26.867188 18.460938 24.921875 18.359375 C 24.722656 20.796875 24.234375 23.566406 23.453125 26.671875 C 22.679688 29.785156 21.539062 32.648438 20.03125 35.265625 C 18.53125 37.890625 16.515625 39.738281 13.984375 40.8125 C 13.890625 40.8125 13.816406 40.8125 13.765625 40.8125 C 13.722656 40.8125 13.65625 40.8125 13.5625 40.8125 C 13.269531 40.90625 12.734375 40.953125 11.953125 40.953125 C 11.660156 40.859375 11.414062 40.757812 11.21875 40.65625 C 11.03125 40.5625 10.835938 40.46875 10.640625 40.375 C 10.441406 40.175781 10.316406 40.03125 10.265625 39.9375 C 10.222656 39.84375 10.101562 39.742188 9.90625 39.640625 C 9.8125 39.546875 9.765625 39.472656 9.765625 39.421875 C 9.765625 39.378906 9.71875 39.304688 9.625 39.203125 C 9.425781 38.910156 9.328125 38.617188 9.328125 38.328125 L 8.75 36.734375 C 8.644531 36.441406 8.566406 36.171875 8.515625 35.921875 C 8.472656 35.679688 8.40625 35.414062 8.3125 35.125 C 6.945312 32.019531 5.003906 29.203125 2.484375 26.671875 C 0.628906 25.015625 -1.363281 23.53125 -3.5 22.21875 C -5.632812 20.914062 -7.820312 19.726562 -10.0625 18.65625 L -10.203125 18.65625 C -10.878906 18.363281 -11.363281 17.851562 -11.65625 17.125 C -11.945312 16.394531 -11.898438 15.691406 -11.515625 15.015625 C -11.515625 14.910156 -11.488281 14.859375 -11.4375 14.859375 C -11.394531 14.859375 -11.375 14.8125 -11.375 14.71875 C -10.976562 14.226562 -10.632812 13.890625 -10.34375 13.703125 C -10.25 13.609375 -10.148438 13.5625 -10.046875 13.5625 C -9.953125 13.5625 -9.859375 13.507812 -9.765625 13.40625 C -9.378906 13.21875 -9.085938 13.125 -8.890625 13.125 C -8.597656 13.019531 -8.207031 12.96875 -7.71875 12.96875 C -7.332031 12.875 -6.992188 12.828125 -6.703125 12.828125 C -6.410156 12.828125 -6.070312 12.828125 -5.6875 12.828125 C -5.101562 12.828125 -4.492188 12.828125 -3.859375 12.828125 C -3.234375 12.828125 -2.628906 12.828125 -2.046875 12.828125 L 5.09375 13.125 L 19.234375 13.984375 C 19.722656 10.585938 20.0625 7.1875 20.25 3.78125 C 20.445312 0.382812 20.597656 -3.007812 20.703125 -6.40625 C 19.140625 -5.050781 16.972656 -3.71875 14.203125 -2.40625 C 11.441406 -1.09375 9.039062 -0.335938 7 -0.140625 C 5.925781 -0.140625 4.90625 -0.257812 3.9375 -0.5 C 2.96875 -0.75 2.140625 -1.359375 1.453125 -2.328125 C 0.773438 -3.304688 0.410156 -4.28125 0.359375 -5.25 C 0.316406 -6.21875 0.34375 -7.09375 0.4375 -7.875 C 0.632812 -9.519531 0.898438 -11.164062 1.234375 -12.8125 C 1.578125 -14.46875 1.75 -16.078125 1.75 -17.640625 C 1.75 -17.828125 1.847656 -17.921875 2.046875 -17.921875 C 2.234375 -17.921875 2.328125 -17.828125 2.328125 -17.640625 C 2.617188 -15.984375 2.691406 -14.328125 2.546875 -12.671875 C 2.398438 -11.023438 2.328125 -9.375 2.328125 -7.71875 C 2.328125 -7.039062 2.398438 -6.335938 2.546875 -5.609375 C 2.691406 -4.878906 2.960938 -4.273438 3.359375 -3.796875 C 3.835938 -3.304688 4.515625 -3.0625 5.390625 -3.0625 C 5.972656 -3.0625 6.410156 -3.109375 6.703125 -3.203125 C 8.648438 -3.597656 10.765625 -4.5 13.046875 -5.90625 C 15.328125 -7.3125 17.148438 -8.695312 18.515625 -10.0625 C 19.097656 -10.539062 19.628906 -11.070312 20.109375 -11.65625 C 20.597656 -12.144531 20.84375 -12.535156 20.84375 -12.828125 C 20.75 -13.410156 20.820312 -13.992188 21.0625 -14.578125 C 21.300781 -15.160156 21.710938 -15.5 22.296875 -15.59375 C 22.492188 -15.6875 22.738281 -15.734375 23.03125 -15.734375 C 24.09375 -15.734375 24.820312 -15.203125 25.21875 -14.140625 C 25.21875 -14.035156 25.21875 -13.957031 25.21875 -13.90625 C 25.21875 -13.863281 25.21875 -13.796875 25.21875 -13.703125 L 25.359375 -12.25 C 25.554688 -10.007812 25.703125 -7.769531 25.796875 -5.53125 C 25.890625 -3.300781 25.9375 -1.066406 25.9375 1.171875 C 25.9375 5.347656 25.789062 9.71875 25.5 14.28125 C 29.195312 14.375 32.890625 14.492188 36.578125 14.640625 C 40.273438 14.785156 43.96875 14.910156 47.65625 15.015625 C 49.40625 15.015625 51.128906 15.035156 52.828125 15.078125 C 54.535156 15.128906 56.265625 15.15625 58.015625 15.15625 C 65.785156 15.15625 73.484375 14.910156 81.109375 14.421875 C 88.734375 13.941406 96.382812 13.070312 104.0625 11.8125 Z M 16.90625 26.234375 C 17.6875 23.609375 18.269531 20.984375 18.65625 18.359375 L 4.953125 18.078125 C 4.273438 18.078125 3.617188 18.078125 2.984375 18.078125 C 2.359375 18.078125 1.65625 18.078125 0.875 18.078125 C 3.113281 19.335938 5.25 20.863281 7.28125 22.65625 C 9.320312 24.457031 11.023438 26.476562 12.390625 28.71875 C 13.066406 29.6875 13.648438 30.800781 14.140625 32.0625 C 14.722656 31.289062 15.234375 30.367188 15.671875 29.296875 C 16.109375 28.222656 16.519531 27.203125 16.90625 26.234375 Z M 16.90625 26.234375 "/></g></g></g><g fill="#000000" fill-opacity="1"><g transform="translate(356.33107, 187.801289)"><g><path d="M 136.5625 37.3125 C 136.757812 37.507812 136.8125 37.65625 136.71875 37.75 C 136.71875 37.84375 136.664062 37.914062 136.5625 37.96875 C 136.46875 38.019531 136.375 37.992188 136.28125 37.890625 C 130.644531 35.171875 125.804688 31.332031 121.765625 26.375 C 117.734375 21.425781 114.378906 15.789062 111.703125 9.46875 C 109.035156 3.15625 106.898438 -3.445312 105.296875 -10.34375 C 103.703125 -17.25 102.488281 -24.003906 101.65625 -30.609375 C 100.832031 -37.210938 100.175781 -43.238281 99.6875 -48.6875 L 98.671875 -64.859375 C 98.472656 -67.578125 98.273438 -70.269531 98.078125 -72.9375 C 97.890625 -75.613281 97.550781 -78.164062 97.0625 -80.59375 C 97.0625 -80.789062 97.015625 -80.9375 96.921875 -81.03125 C 95.753906 -79.476562 94.707031 -77.898438 93.78125 -76.296875 C 92.863281 -74.691406 91.96875 -73.015625 91.09375 -71.265625 C 89.832031 -68.742188 88.617188 -66.144531 87.453125 -63.46875 C 86.285156 -60.800781 85.117188 -58.15625 83.953125 -55.53125 C 81.523438 -50.1875 79.09375 -44.84375 76.65625 -39.5 C 74.226562 -34.15625 71.460938 -28.90625 68.359375 -23.75 C 67.191406 -21.8125 65.679688 -19.769531 63.828125 -17.625 C 61.984375 -15.488281 59.945312 -14.035156 57.71875 -13.265625 C 57.519531 -13.171875 57.25 -13.097656 56.90625 -13.046875 C 56.570312 -12.992188 56.257812 -12.921875 55.96875 -12.828125 L 55.671875 -12.828125 C 55.191406 -12.828125 54.851562 -12.875 54.65625 -12.96875 C 54.363281 -12.96875 54.09375 -13.015625 53.84375 -13.109375 C 53.601562 -13.210938 53.390625 -13.3125 53.203125 -13.40625 C 52.515625 -13.894531 51.976562 -14.332031 51.59375 -14.71875 C 51.207031 -15.101562 50.867188 -15.492188 50.578125 -15.890625 C 49.609375 -17.535156 48.851562 -19.0625 48.3125 -20.46875 C 47.78125 -21.882812 47.269531 -23.320312 46.78125 -24.78125 C 46.300781 -26.238281 45.863281 -27.695312 45.46875 -29.15625 C 45.082031 -30.613281 44.695312 -32.066406 44.3125 -33.515625 C 43.039062 -38.765625 42.015625 -44.0625 41.234375 -49.40625 C 40.460938 -54.75 39.738281 -60.09375 39.0625 -65.4375 C 38.863281 -65.050781 38.644531 -64.660156 38.40625 -64.265625 C 38.164062 -63.878906 37.945312 -63.492188 37.75 -63.109375 C 36.96875 -61.648438 36.210938 -60.144531 35.484375 -58.59375 C 34.753906 -57.039062 34.003906 -55.484375 33.234375 -53.921875 C 31.773438 -50.816406 30.335938 -47.660156 28.921875 -44.453125 C 27.515625 -41.242188 26.035156 -38.085938 24.484375 -34.984375 C 22.929688 -31.867188 21.328125 -28.753906 19.671875 -25.640625 C 18.023438 -22.535156 16.273438 -19.476562 14.421875 -16.46875 C 12.578125 -13.550781 10.585938 -10.660156 8.453125 -7.796875 C 6.316406 -4.929688 3.835938 -2.378906 1.015625 -0.140625 C 1.015625 -0.140625 0.96875 -0.140625 0.875 -0.140625 C 0.78125 -0.140625 0.679688 -0.191406 0.578125 -0.296875 C 0.578125 -0.296875 0.578125 -0.34375 0.578125 -0.4375 C 0.578125 -0.53125 0.578125 -0.628906 0.578125 -0.734375 C 3.585938 -3.835938 6.285156 -7.429688 8.671875 -11.515625 C 11.054688 -15.597656 13.242188 -19.847656 15.234375 -24.265625 C 17.222656 -28.691406 18.992188 -32.847656 20.546875 -36.734375 C 21.910156 -39.929688 23.222656 -43.132812 24.484375 -46.34375 C 25.742188 -49.550781 27.054688 -52.757812 28.421875 -55.96875 C 29.097656 -57.625 29.773438 -59.273438 30.453125 -60.921875 C 31.140625 -62.578125 31.867188 -64.179688 32.640625 -65.734375 C 33.128906 -66.515625 33.59375 -67.316406 34.03125 -68.140625 C 34.46875 -68.960938 35.023438 -69.8125 35.703125 -70.6875 C 35.898438 -70.976562 36.335938 -71.460938 37.015625 -72.140625 C 37.304688 -72.335938 37.671875 -72.554688 38.109375 -72.796875 C 38.546875 -73.046875 39.15625 -73.21875 39.9375 -73.3125 C 40.707031 -73.3125 41.4375 -73.164062 42.125 -72.875 C 42.414062 -72.675781 42.679688 -72.476562 42.921875 -72.28125 C 43.160156 -72.09375 43.332031 -71.898438 43.4375 -71.703125 C 43.726562 -71.316406 43.96875 -70.976562 44.15625 -70.6875 C 44.351562 -70.394531 44.5 -70.101562 44.59375 -69.8125 C 44.695312 -69.71875 44.75 -69.617188 44.75 -69.515625 C 44.75 -69.421875 44.796875 -69.328125 44.890625 -69.234375 L 44.890625 -68.9375 C 45.859375 -61.84375 46.972656 -54.75 48.234375 -47.65625 C 49.503906 -40.5625 51.0625 -33.566406 52.90625 -26.671875 C 53.394531 -25.410156 53.859375 -24.125 54.296875 -22.8125 C 54.734375 -21.5 55.242188 -20.40625 55.828125 -19.53125 C 55.828125 -19.4375 55.847656 -19.390625 55.890625 -19.390625 C 55.941406 -19.390625 55.96875 -19.335938 55.96875 -19.234375 C 56.75 -19.429688 57.644531 -20.015625 58.65625 -20.984375 C 59.675781 -21.960938 60.625 -23.054688 61.5 -24.265625 C 62.375 -25.484375 63.007812 -26.382812 63.40625 -26.96875 C 66.507812 -31.726562 69.320312 -36.707031 71.84375 -41.90625 C 74.375 -47.101562 76.851562 -52.328125 79.28125 -57.578125 C 80.550781 -60.191406 81.816406 -62.8125 83.078125 -65.4375 C 84.335938 -68.0625 85.597656 -70.6875 86.859375 -73.3125 C 87.640625 -74.675781 88.367188 -76.007812 89.046875 -77.3125 C 89.734375 -78.625 90.515625 -79.914062 91.390625 -81.1875 C 91.867188 -81.863281 92.351562 -82.515625 92.84375 -83.140625 C 93.332031 -83.773438 94.0625 -84.382812 95.03125 -84.96875 C 95.226562 -85.164062 95.519531 -85.335938 95.90625 -85.484375 C 96.289062 -85.628906 96.726562 -85.703125 97.21875 -85.703125 C 97.695312 -85.703125 98.15625 -85.578125 98.59375 -85.328125 C 99.03125 -85.085938 99.394531 -84.875 99.6875 -84.6875 C 100.175781 -84.101562 100.539062 -83.59375 100.78125 -83.15625 C 101.03125 -82.71875 101.203125 -82.253906 101.296875 -81.765625 C 101.296875 -81.765625 101.296875 -81.738281 101.296875 -81.6875 C 101.296875 -81.644531 101.296875 -81.570312 101.296875 -81.46875 C 101.785156 -78.75 102.101562 -76.03125 102.25 -73.3125 C 102.394531 -70.59375 102.515625 -67.875 102.609375 -65.15625 L 103.34375 -48.96875 C 103.632812 -43.332031 104.09375 -37.210938 104.71875 -30.609375 C 105.351562 -24.003906 106.347656 -17.300781 107.703125 -10.5 C 109.066406 -3.695312 110.960938 2.8125 113.390625 9.03125 C 115.816406 15.25 118.898438 20.8125 122.640625 25.71875 C 126.390625 30.625 131.03125 34.488281 136.5625 37.3125 Z M 40.671875 -67.484375 C 40.765625 -67.484375 40.8125 -67.484375 40.8125 -67.484375 C 40.8125 -67.484375 40.785156 -67.484375 40.734375 -67.484375 C 40.691406 -67.484375 40.671875 -67.484375 40.671875 -67.484375 Z M 40.671875 -67.484375 "/></g></g></g><g fill="#000000" fill-opacity="1"><g transform="translate(471.761498, 187.801289)"><g><path d="M 35.421875 -14.140625 C 35.515625 -14.035156 35.460938 -13.890625 35.265625 -13.703125 C 34.585938 -13.316406 33.882812 -12.953125 33.15625 -12.609375 C 32.425781 -12.265625 31.675781 -11.945312 30.90625 -11.65625 C 31.289062 -10.976562 31.484375 -10.101562 31.484375 -9.03125 C 31.484375 -7.96875 31.164062 -7 30.53125 -6.125 C 29.90625 -5.25 29.25 -4.566406 28.5625 -4.078125 C 26.8125 -2.722656 24.40625 -1.753906 21.34375 -1.171875 C 18.289062 -0.585938 15.695312 -0.296875 13.5625 -0.296875 C 10.832031 -0.296875 8.179688 -0.828125 5.609375 -1.890625 C 3.035156 -2.960938 1.3125 -4.90625 0.4375 -7.71875 C 0.238281 -8.695312 0.210938 -9.671875 0.359375 -10.640625 C 0.503906 -11.609375 0.773438 -12.4375 1.171875 -13.125 C 1.648438 -13.894531 2.132812 -14.570312 2.625 -15.15625 C 3.113281 -15.738281 3.695312 -16.222656 4.375 -16.609375 C 6.019531 -17.679688 7.769531 -18.21875 9.625 -18.21875 C 10.6875 -18.21875 11.65625 -18.070312 12.53125 -17.78125 C 12.726562 -17.78125 12.828125 -17.679688 12.828125 -17.484375 C 12.828125 -17.296875 12.726562 -17.203125 12.53125 -17.203125 C 10.101562 -16.617188 8.207031 -15.5 6.84375 -13.84375 C 6.164062 -13.070312 5.753906 -12.25 5.609375 -11.375 C 5.460938 -10.5 5.535156 -9.816406 5.828125 -9.328125 C 6.316406 -8.453125 7.582031 -7.769531 9.625 -7.28125 C 10.6875 -7.1875 11.75 -7.085938 12.8125 -6.984375 C 13.882812 -6.890625 15.003906 -6.796875 16.171875 -6.703125 C 16.660156 -6.703125 17.78125 -6.773438 19.53125 -6.921875 C 21.28125 -7.066406 22.929688 -7.332031 24.484375 -7.71875 C 26.035156 -8.113281 26.8125 -8.648438 26.8125 -9.328125 C 26.8125 -9.523438 26.785156 -9.71875 26.734375 -9.90625 C 26.691406 -10.101562 26.625 -10.347656 26.53125 -10.640625 C 26.332031 -10.640625 26.132812 -10.613281 25.9375 -10.5625 C 25.75 -10.519531 25.554688 -10.5 25.359375 -10.5 C 24.390625 -10.5 23.414062 -10.59375 22.4375 -10.78125 C 21.46875 -10.976562 20.546875 -11.320312 19.671875 -11.8125 C 18.796875 -12.394531 18.066406 -13.171875 17.484375 -14.140625 C 17.191406 -14.617188 16.972656 -15.195312 16.828125 -15.875 C 16.679688 -16.5625 16.753906 -17.242188 17.046875 -17.921875 L 17.203125 -18.078125 C 17.585938 -18.753906 18.070312 -19.164062 18.65625 -19.3125 C 19.238281 -19.457031 19.867188 -19.53125 20.546875 -19.53125 C 21.035156 -19.4375 21.445312 -19.335938 21.78125 -19.234375 C 22.125 -19.140625 22.441406 -19.046875 22.734375 -18.953125 C 23.898438 -18.367188 25.164062 -17.6875 26.53125 -16.90625 C 27.007812 -16.519531 27.539062 -16.082031 28.125 -15.59375 C 28.707031 -15.101562 29.195312 -14.566406 29.59375 -13.984375 C 29.78125 -13.796875 29.921875 -13.601562 30.015625 -13.40625 C 30.117188 -13.21875 30.21875 -13.023438 30.3125 -12.828125 C 31.09375 -13.023438 31.894531 -13.242188 32.71875 -13.484375 C 33.539062 -13.722656 34.296875 -13.988281 34.984375 -14.28125 C 35.273438 -14.28125 35.421875 -14.234375 35.421875 -14.140625 Z M 21.28125 -13.984375 C 22.25 -13.210938 23.609375 -12.726562 25.359375 -12.53125 C 24.773438 -13.113281 24.335938 -13.503906 24.046875 -13.703125 C 23.660156 -14.085938 23.222656 -14.445312 22.734375 -14.78125 C 22.253906 -15.125 21.769531 -15.394531 21.28125 -15.59375 C 20.894531 -15.882812 20.457031 -16.03125 19.96875 -16.03125 C 19.96875 -15.25 20.40625 -14.566406 21.28125 -13.984375 Z M 21.28125 -13.984375 "/></g></g></g><g fill="#000000" fill-opacity="1"><g transform="translate(508.197868, 187.801289)"><g><path d="M 27.40625 -3.0625 C 27.59375 -3.0625 27.6875 -2.960938 27.6875 -2.765625 C 27.6875 -2.578125 27.640625 -2.484375 27.546875 -2.484375 C 26.578125 -1.898438 25.363281 -1.363281 23.90625 -0.875 C 22.445312 -0.382812 21.132812 -0.140625 19.96875 -0.140625 C 19.769531 -0.140625 19.523438 -0.140625 19.234375 -0.140625 C 18.941406 -0.140625 18.703125 -0.191406 18.515625 -0.296875 C 17.535156 -0.484375 16.65625 -0.914062 15.875 -1.59375 C 15.101562 -2.28125 14.472656 -3.0625 13.984375 -3.9375 C 13.597656 -4.8125 13.359375 -5.6875 13.265625 -6.5625 C 13.171875 -7.4375 13.070312 -8.210938 12.96875 -8.890625 L 12.828125 -10.0625 C 12.628906 -9.863281 12.4375 -9.765625 12.25 -9.765625 C 11.082031 -9.378906 9.816406 -9.1875 8.453125 -9.1875 C 6.210938 -9.1875 4.125 -9.71875 2.1875 -10.78125 L 1.015625 -11.375 C 0.046875 -11.664062 -0.242188 -12.394531 0.140625 -13.5625 C 0.335938 -13.75 0.484375 -13.890625 0.578125 -13.984375 C 0.679688 -14.085938 0.828125 -14.1875 1.015625 -14.28125 C 1.117188 -14.375 1.242188 -14.492188 1.390625 -14.640625 C 1.535156 -14.785156 1.65625 -14.910156 1.75 -15.015625 C 1.945312 -15.109375 2.238281 -15.347656 2.625 -15.734375 C 2.820312 -15.929688 3.066406 -16.195312 3.359375 -16.53125 C 3.648438 -16.875 3.796875 -17.191406 3.796875 -17.484375 C 3.796875 -17.679688 3.941406 -17.78125 4.234375 -17.78125 L 4.375 -17.78125 C 4.5625 -17.6875 4.726562 -17.46875 4.875 -17.125 C 5.019531 -16.78125 5.144531 -16.515625 5.25 -16.328125 C 5.34375 -16.128906 5.390625 -15.785156 5.390625 -15.296875 C 6.359375 -15.492188 7.28125 -15.640625 8.15625 -15.734375 C 9.03125 -15.835938 9.8125 -15.9375 10.5 -16.03125 C 11.269531 -16.226562 11.800781 -16.375 12.09375 -16.46875 L 12.25 -16.46875 C 12.539062 -16.5625 12.6875 -16.609375 12.6875 -16.609375 C 12.976562 -16.710938 13.242188 -16.785156 13.484375 -16.828125 C 13.722656 -16.878906 14.035156 -16.90625 14.421875 -16.90625 C 15.691406 -16.90625 16.566406 -16.46875 17.046875 -15.59375 C 17.535156 -15.007812 17.78125 -14.472656 17.78125 -13.984375 C 17.976562 -13.304688 18.050781 -12.773438 18 -12.390625 C 17.945312 -12.003906 17.875 -11.566406 17.78125 -11.078125 L 17.640625 -8.890625 C 17.535156 -7.628906 17.554688 -6.460938 17.703125 -5.390625 C 17.847656 -4.328125 18.410156 -3.550781 19.390625 -3.0625 C 20.160156 -2.675781 21.273438 -2.484375 22.734375 -2.484375 C 23.515625 -2.484375 24.289062 -2.554688 25.0625 -2.703125 C 25.84375 -2.847656 26.625 -2.96875 27.40625 -3.0625 Z M 12.6875 -12.25 C 12.582031 -12.4375 12.53125 -12.53125 12.53125 -12.53125 C 12.53125 -12.53125 12.53125 -12.503906 12.53125 -12.453125 C 12.53125 -12.410156 12.582031 -12.34375 12.6875 -12.25 Z M 12.6875 -12.25 "/></g></g></g><g fill="#000000" fill-opacity="1"><g transform="translate(536.763972, 187.801289)"><g><path d="M 15.734375 -3.203125 C 16.023438 -3.203125 16.171875 -3.109375 16.171875 -2.921875 C 16.171875 -2.816406 16.144531 -2.738281 16.09375 -2.6875 C 16.050781 -2.644531 16.03125 -2.625 16.03125 -2.625 C 15.0625 -2.039062 14.066406 -1.550781 13.046875 -1.15625 C 12.023438 -0.769531 10.882812 -0.484375 9.625 -0.296875 C 8.0625 -0.296875 6.625 -0.632812 5.3125 -1.3125 C 4.007812 -1.988281 3.113281 -3.101562 2.625 -4.65625 C 2.039062 -5.925781 1.601562 -7.164062 1.3125 -8.375 C 1.019531 -9.59375 1.019531 -10.738281 1.3125 -11.8125 C 1.601562 -12.976562 1.988281 -14.046875 2.46875 -15.015625 C 2.957031 -15.984375 3.640625 -16.953125 4.515625 -17.921875 C 4.710938 -18.210938 4.90625 -18.265625 5.09375 -18.078125 C 6.070312 -16.910156 6.707031 -15.789062 7 -14.71875 C 7.289062 -13.65625 7.53125 -12.585938 7.71875 -11.515625 C 7.914062 -10.546875 7.890625 -9.625 7.640625 -8.75 C 7.398438 -7.875 7.332031 -7.046875 7.4375 -6.265625 C 7.625 -4.910156 8.300781 -4.035156 9.46875 -3.640625 C 10.632812 -3.253906 11.800781 -3.0625 12.96875 -3.0625 C 13.457031 -3.0625 13.941406 -3.082031 14.421875 -3.125 C 14.910156 -3.175781 15.347656 -3.203125 15.734375 -3.203125 Z M 4.65625 -26.375 C 4.5625 -26.375 4.441406 -26.375 4.296875 -26.375 C 4.148438 -26.375 3.984375 -26.375 3.796875 -26.375 C 2.523438 -26.570312 1.570312 -26.742188 0.9375 -26.890625 C 0.3125 -27.035156 -0.144531 -27.15625 -0.4375 -27.25 C -0.820312 -27.445312 -0.820312 -27.640625 -0.4375 -27.828125 C -0.0507812 -28.023438 0.238281 -28.175781 0.4375 -28.28125 C 0.632812 -28.46875 0.851562 -28.632812 1.09375 -28.78125 C 1.332031 -28.925781 1.597656 -29.050781 1.890625 -29.15625 C 2.472656 -29.632812 3.109375 -29.972656 3.796875 -30.171875 C 4.085938 -30.367188 4.375 -30.367188 4.65625 -30.171875 C 5.4375 -29.878906 6.070312 -29.539062 6.5625 -29.15625 C 6.851562 -29.050781 7.117188 -28.925781 7.359375 -28.78125 C 7.597656 -28.632812 7.816406 -28.46875 8.015625 -28.28125 C 8.210938 -28.175781 8.503906 -28.023438 8.890625 -27.828125 C 9.273438 -27.640625 9.273438 -27.445312 8.890625 -27.25 C 8.597656 -27.15625 8.160156 -27.035156 7.578125 -26.890625 C 6.992188 -26.742188 6.019531 -26.570312 4.65625 -26.375 Z M 4.65625 -26.375 "/></g></g></g><g fill="#000000" fill-opacity="1"><g transform="translate(251.616446, 273.556148)"><g><path d="M 17.71875 0.453125 C 14.914062 0.453125 12.414062 -0.1875 10.21875 -1.46875 C 8.03125 -2.757812 6.3125 -4.640625 5.0625 -7.109375 C 3.820312 -9.585938 3.203125 -12.5625 3.203125 -16.03125 C 3.203125 -19.5 3.820312 -22.472656 5.0625 -24.953125 C 6.3125 -27.429688 8.03125 -29.3125 10.21875 -30.59375 C 12.414062 -31.882812 14.914062 -32.53125 17.71875 -32.53125 C 20.71875 -32.53125 23.210938 -31.960938 25.203125 -30.828125 C 27.191406 -29.691406 28.625 -27.984375 29.5 -25.703125 L 27.09375 -24.109375 L 26.546875 -24.109375 C 25.660156 -25.929688 24.515625 -27.226562 23.109375 -28 C 21.710938 -28.769531 19.914062 -29.15625 17.71875 -29.15625 C 15.707031 -29.15625 13.914062 -28.703125 12.34375 -27.796875 C 10.78125 -26.898438 9.535156 -25.472656 8.609375 -23.515625 C 7.691406 -21.566406 7.234375 -19.070312 7.234375 -16.03125 C 7.234375 -12.988281 7.691406 -10.492188 8.609375 -8.546875 C 9.535156 -6.609375 10.78125 -5.1875 12.34375 -4.28125 C 13.914062 -3.382812 15.707031 -2.9375 17.71875 -2.9375 C 20.039062 -2.9375 21.941406 -3.457031 23.421875 -4.5 C 24.898438 -5.550781 26 -7.242188 26.71875 -9.578125 L 27.265625 -9.578125 L 29.78125 -8.328125 C 29.019531 -5.492188 27.613281 -3.320312 25.5625 -1.8125 C 23.507812 -0.300781 20.894531 0.453125 17.71875 0.453125 Z M 17.71875 0.453125 "/></g></g></g><g fill="#000000" fill-opacity="1"><g transform="translate(282.699105, 273.556148)"><g><path d="M 17.59375 0.453125 C 14.8125 0.453125 12.335938 -0.144531 10.171875 -1.34375 C 8.015625 -2.539062 6.3125 -4.367188 5.0625 -6.828125 C 3.820312 -9.296875 3.203125 -12.363281 3.203125 -16.03125 C 3.203125 -19.707031 3.820312 -22.773438 5.0625 -25.234375 C 6.3125 -27.703125 8.015625 -29.535156 10.171875 -30.734375 C 12.335938 -31.929688 14.8125 -32.53125 17.59375 -32.53125 C 20.375 -32.53125 22.84375 -31.929688 25 -30.734375 C 27.164062 -29.535156 28.867188 -27.703125 30.109375 -25.234375 C 31.359375 -22.773438 31.984375 -19.707031 31.984375 -16.03125 C 31.984375 -12.363281 31.359375 -9.296875 30.109375 -6.828125 C 28.867188 -4.367188 27.164062 -2.539062 25 -1.34375 C 22.84375 -0.144531 20.375 0.453125 17.59375 0.453125 Z M 17.59375 -3.03125 C 20.925781 -3.03125 23.484375 -4.070312 25.265625 -6.15625 C 27.046875 -8.238281 27.9375 -11.53125 27.9375 -16.03125 C 27.9375 -20.539062 27.046875 -23.835938 25.265625 -25.921875 C 23.484375 -28.003906 20.925781 -29.046875 17.59375 -29.046875 C 10.6875 -29.046875 7.234375 -24.707031 7.234375 -16.03125 C 7.234375 -7.363281 10.6875 -3.03125 17.59375 -3.03125 Z M 17.59375 -3.03125 "/></g></g><g transform="translate(317.88371, 273.556148)"><g><path d="M 8.625 -32.0625 L 8.625 -3.109375 L 24.0625 -3.109375 L 24.0625 0 L 4.84375 0 L 4.84375 -32.0625 Z M 8.625 -32.0625 "/></g></g><g transform="translate(343.307, 273.556148)"><g><path d="M 8.625 -32.0625 L 8.625 -3.109375 L 24.0625 -3.109375 L 24.0625 0 L 4.84375 0 L 4.84375 -32.0625 Z M 8.625 -32.0625 "/></g></g><g transform="translate(368.73029, 273.556148)"><g><path d="M 8.625 -15.109375 L 8.625 -3.109375 L 24.96875 -3.109375 L 24.96875 0 L 4.84375 0 L 4.84375 -32.0625 L 24.609375 -32.0625 L 24.609375 -28.953125 L 8.625 -28.953125 L 8.625 -18.234375 L 22.71875 -18.234375 L 22.71875 -15.109375 Z M 8.625 -15.109375 "/></g></g></g><g fill="#000000" fill-opacity="1"><g transform="translate(395.360034, 273.556148)"><g><path d="M 17.71875 0.453125 C 14.914062 0.453125 12.414062 -0.1875 10.21875 -1.46875 C 8.03125 -2.757812 6.3125 -4.640625 5.0625 -7.109375 C 3.820312 -9.585938 3.203125 -12.5625 3.203125 -16.03125 C 3.203125 -19.5 3.820312 -22.472656 5.0625 -24.953125 C 6.3125 -27.429688 8.03125 -29.3125 10.21875 -30.59375 C 12.414062 -31.882812 14.914062 -32.53125 17.71875 -32.53125 C 20.71875 -32.53125 23.210938 -31.960938 25.203125 -30.828125 C 27.191406 -29.691406 28.625 -27.984375 29.5 -25.703125 L 27.09375 -24.109375 L 26.546875 -24.109375 C 25.660156 -25.929688 24.515625 -27.226562 23.109375 -28 C 21.710938 -28.769531 19.914062 -29.15625 17.71875 -29.15625 C 15.707031 -29.15625 13.914062 -28.703125 12.34375 -27.796875 C 10.78125 -26.898438 9.535156 -25.472656 8.609375 -23.515625 C 7.691406 -21.566406 7.234375 -19.070312 7.234375 -16.03125 C 7.234375 -12.988281 7.691406 -10.492188 8.609375 -8.546875 C 9.535156 -6.609375 10.78125 -5.1875 12.34375 -4.28125 C 13.914062 -3.382812 15.707031 -2.9375 17.71875 -2.9375 C 20.039062 -2.9375 21.941406 -3.457031 23.421875 -4.5 C 24.898438 -5.550781 26 -7.242188 26.71875 -9.578125 L 27.265625 -9.578125 L 29.78125 -8.328125 C 29.019531 -5.492188 27.613281 -3.320312 25.5625 -1.8125 C 23.507812 -0.300781 20.894531 0.453125 17.71875 0.453125 Z M 17.71875 0.453125 "/></g></g><g transform="translate(426.815597, 273.556148)"><g><path d="M 25.03125 -32.0625 L 25.03125 -28.859375 L 14.984375 -28.859375 L 14.984375 0 L 11.234375 0 L 11.234375 -28.859375 L 1.1875 -28.859375 L 1.1875 -32.0625 Z M 25.03125 -32.0625 "/></g></g><g transform="translate(453.006631, 273.556148)"><g><path d="M 8.625 0 L 4.84375 0 L 4.84375 -32.0625 L 8.625 -32.0625 Z M 8.625 0 "/></g></g><g transform="translate(466.496987, 273.556148)"><g><path d="M 17.59375 0.453125 C 14.8125 0.453125 12.335938 -0.144531 10.171875 -1.34375 C 8.015625 -2.539062 6.3125 -4.367188 5.0625 -6.828125 C 3.820312 -9.296875 3.203125 -12.363281 3.203125 -16.03125 C 3.203125 -19.707031 3.820312 -22.773438 5.0625 -25.234375 C 6.3125 -27.703125 8.015625 -29.535156 10.171875 -30.734375 C 12.335938 -31.929688 14.8125 -32.53125 17.59375 -32.53125 C 20.375 -32.53125 22.84375 -31.929688 25 -30.734375 C 27.164062 -29.535156 28.867188 -27.703125 30.109375 -25.234375 C 31.359375 -22.773438 31.984375 -19.707031 31.984375 -16.03125 C 31.984375 -12.363281 31.359375 -9.296875 30.109375 -6.828125 C 28.867188 -4.367188 27.164062 -2.539062 25 -1.34375 C 22.84375 -0.144531 20.375 0.453125 17.59375 0.453125 Z M 17.59375 -3.03125 C 20.925781 -3.03125 23.484375 -4.070312 25.265625 -6.15625 C 27.046875 -8.238281 27.9375 -11.53125 27.9375 -16.03125 C 27.9375 -20.539062 27.046875 -23.835938 25.265625 -25.921875 C 23.484375 -28.003906 20.925781 -29.046875 17.59375 -29.046875 C 10.6875 -29.046875 7.234375 -24.707031 7.234375 -16.03125 C 7.234375 -7.363281 10.6875 -3.03125 17.59375 -3.03125 Z M 17.59375 -3.03125 "/></g></g><g transform="translate(501.681592, 273.556148)"><g><path d="M 8.53125 0 L 4.84375 0 L 4.84375 -32.0625 L 9.46875 -32.0625 L 25.109375 -7.5625 L 25.65625 -7.65625 L 25.65625 -32.0625 L 29.328125 -32.0625 L 29.328125 0 L 25.375 0 L 9.078125 -26.21875 L 8.53125 -26.125 Z M 8.53125 0 "/></g></g></g></svg>